<svg width="236" height="244" viewBox="0 0 236 244" fill="none" xmlns="http://www.w3.org/2000/svg">
<g clip-path="url(#clip0_6562_46247)">
<path d="M222.146 0.337378H13.8541C6.21323 0.337378 0 6.56885 0 14.2322V229.712C0 237.375 6.21323 243.607 13.8541 243.607H222.146C229.787 243.607 236 237.375 236 229.712V14.2322C236 6.56885 229.787 0.337378 222.146 0.337378ZM234.543 229.712C234.543 236.572 228.986 242.146 222.146 242.146H13.8541C7.01445 242.146 1.45679 236.572 1.45679 229.712V14.2322C1.45679 7.37248 7.01444 1.79846 13.8541 1.79846H222.146C228.986 1.79846 234.543 7.37247 234.543 14.2322V229.712Z" fill="#D9D9D9"/>
<path d="M93.9847 14.4733H73.5458C72.5188 14.4733 71.6812 15.3134 71.6812 16.3435C71.6812 17.3808 72.5188 18.221 73.5458 18.221H93.9847C95.0117 18.221 95.8493 17.3808 95.8493 16.3435C95.8493 15.3134 95.0117 14.4733 93.9847 14.4733Z" fill="#E6E6E6"/>
<path d="M128.219 14.4733H107.78C106.753 14.4733 105.916 15.3134 105.916 16.3435C105.916 17.3808 106.753 18.221 107.78 18.221H128.219C129.246 18.221 130.084 17.3808 130.084 16.3435C130.084 15.3134 129.246 14.4733 128.219 14.4733Z" fill="#E6E6E6"/>
<path d="M162.454 14.4733H142.015C140.988 14.4733 140.15 15.3134 140.15 16.3435C140.15 17.3808 140.988 18.221 142.015 18.221H162.454C163.481 18.221 164.319 17.3808 164.319 16.3435C164.319 15.3134 163.481 14.4733 162.454 14.4733Z" fill="#E6E6E6"/>
<path d="M196.164 200.87H39.8357C33.3311 200.87 28.043 206.02 28.043 212.355V222.726C28.043 229.06 33.3311 234.21 39.8357 234.21H196.164C202.668 234.21 207.957 229.06 207.957 222.726V212.355C207.957 206.02 202.668 200.87 196.164 200.87Z" fill="#F2F2F2"/>
<rect x="32" y="52" width="172" height="26" rx="4" fill="#F2F2F2"/>
<rect x="32" y="90" width="172" height="26" rx="4" fill="#E6E6E6"/>
<rect x="32" y="128" width="172" height="26" rx="4" fill="#F2F2F2"/>
<rect x="44" y="146" width="172" height="26" rx="4" fill="#81AEBC"/>
</g>
<defs>
<clipPath id="clip0_6562_46247">
<rect width="236" height="244" fill="white"/>
</clipPath>
</defs>
</svg>
